HIERARCHY
ROOT Hips
{
	OFFSET 0.00000 0.00000 0.00000
	CHANNELS 6 Xposition Yposition Zposition Yrotation Zrotation Xrotation 
	JOINT Lumbar
	{
		OFFSET 0 0 0
		CHANNELS 3 Zrotation Xrotation Yrotation
		JOINT Neck
		{
			OFFSET 0.00 0.2701 0.00
			CHANNELS 3 Zrotation Xrotation Yrotation
			End Site
			{
				OFFSET 0.00 0.1379 0.00
			}
		}
		JOINT RightShoulder
		{
			OFFSET 0.0119 0.2289 0.1181
			CHANNELS 3 Zrotation Xrotation Yrotation
			JOINT RightElbow
			{
				OFFSET 0.00 -0.1475 0.00
				CHANNELS 2 Zrotation Yrotation
				JOINT RightWrist
				{
					OFFSET 0.00 -0.1605 0.00
					CHANNELS 2 Zrotation Xrotation
					End Site
					{
						OFFSET 0.0040 -0.1068 0.0006
					}
				}
			}
		}
		JOINT LeftShoulder
		{
			OFFSET 0.0119 0.2289 -0.1181
			CHANNELS 3 Zrotation Xrotation Yrotation
			JOINT LeftElbow
			{
				OFFSET 0.00 -0.1475 0.00
				CHANNELS 2 Zrotation Yrotation
				JOINT LeftWrist
				{
					OFFSET 0.00 -0.1605 0.00
					CHANNELS 2 Zrotation Xrotation
					End Site
					{
						OFFSET 0.0040 -0.1068 -0.0006
					}
				}
			}
		}
	}
	JOINT RightHip
	{
		OFFSET 0.0316 -0.0424 0.0458
		CHANNELS 3 Zrotation Xrotation Yrotation
		JOINT RightKnee
		{
			OFFSET 0.00 -0.2438 0.00
			CHANNELS 1 Zrotation
			JOINT RightAnkle
			{
				OFFSET 0.00 -0.2449 0.00
				CHANNELS 3 Zrotation Xrotation Yrotation
				End Site
				{
					OFFSET 0.1237 -0.0542 0.0051
				}
			}
		}
	}
	JOINT LeftHip
	{
		OFFSET 0.0316 -0.0424 -0.0458
		CHANNELS 3 Zrotation Xrotation Yrotation
		JOINT LeftKnee
		{
			OFFSET 0.00 -0.2438 0.00
			CHANNELS 1 Zrotation
			JOINT LeftAnkle
			{
				OFFSET 0.00 -0.2449 0.00
				CHANNELS 3 Zrotation Xrotation Yrotation
				End Site
				{
					OFFSET 0.1237 -0.0542 -0.0051
				}
			}
		}
	}
}
MOTION
Frames: 31
Frame Time: 0.02
0.00129 -6e-05 0.00071 -2.04699 -22.63065 -1.42903 48.39373 2.67112 -4.70726 -11.03268 -5.3141 -0.52069 -22.97615 -8.21886 -11.73772 43.49996 151.23092 20.75509 10.35104 -37.37639 10.03222 7.26832 37.03276 -98.01582 14.23773 0.15532 35.93829 -3.42149 -6.32075 -21.59922 -10.25648 -5.56687 -3.82949 37.43838 8.15545 3.37529 -27.53607 -10.06796 5.61227 3.85636
0.00104 -7e-05 0.00089 -1.93446 -22.49048 -1.43957 48.18788 2.62041 -4.68131 -11.00371 -5.33984 -0.52081 -23.15173 -8.8387 -10.40368 43.51789 145.29243 19.38303 9.33451 -37.12435 10.01566 7.1948 36.85343 -98.0266 14.28774 0.15782 35.76303 -3.44685 -6.58923 -21.56389 -10.23573 -5.55699 -3.82304 37.30994 8.22028 3.56738 -27.49725 -10.04428 5.59549 3.84474
0.00078 -7e-05 0.00106 -1.82192 -22.35076 -1.45012 47.9826 2.56979 -4.65561 -10.97477 -5.36545 -0.52093 -23.32703 -9.4568 -9.07396 43.53554 139.37215 18.01516 8.32111 -36.8721 9.99932 7.12084 36.67495 -98.03723 14.33749 0.16032 35.58832 -3.47212 -6.85681 -21.52868 -10.21509 -5.54715 -3.81663 37.18203 8.2849 3.75882 -27.45856 -10.02063 5.57874 3.83314
0.00052 -8e-05 0.00123 -1.70968 -22.21102 -1.46064 47.77737 2.51924 -4.62976 -10.94588 -5.39112 -0.52106 -23.50211 -10.07476 -7.74406 43.55337 133.45193 16.64731 7.30771 -36.62071 9.98285 7.04741 36.49621 -98.04783 14.3873 0.16284 35.4136 -3.4974 -7.12445 -21.49345 -10.19441 -5.5373 -3.81021 37.054 8.34952 3.95031 -27.41985 -9.99701 5.56201 3.82156
0.00026 -9e-05 0.0014 -1.59757 -22.07086 -1.47111 47.57163 2.46862 -4.60362 -10.91699 -5.41689 -0.52118 -23.67741 -10.69442 -6.40978 43.57159 127.51354 15.27528 6.29118 -36.36984 9.96608 6.97473 36.31653 -98.05897 14.4375 0.16529 35.23836 -3.52276 -7.39302 -21.4581 -10.17363 -5.52739 -3.80375 36.92542 8.41436 4.14247 -27.38102 -9.97336 5.54525 3.80995
0 -9e-05 0.00157 -1.48415 -21.93208 -1.48184 47.36733 2.418 -4.57884 -10.88792 -5.44215 -0.52131 -23.85269 -11.30918 -5.08975 43.58808 121.63169 13.91623 5.28442 -36.11466 9.95062 6.89813 36.14061 -98.06872 14.48635 0.16788 35.06479 -3.54785 -7.6585 -21.42319 -10.15328 -5.51769 -3.79744 36.79896 8.47852 4.3324 -27.34264 -9.9497 5.52853 3.79837
-0.00026 -0.0001 0.00175 -1.3735 -21.79061 -1.49203 47.16033 2.36745 -4.55131 -10.85927 -5.4685 -0.52143 -24.02777 -11.93308 -3.74251 43.60795 115.64286 12.53263 4.25917 -35.86861 9.93259 6.82934 35.95725 -98.08032 14.53762 0.17034 34.88797 -3.57346 -7.9299 -21.38743 -10.13207 -5.50759 -3.79084 36.66829 8.54396 4.52659 -27.30338 -9.9261 5.51175 3.78675
-0.00051 -0.00011 0.00192 -1.26029 -21.65172 -1.50274 46.95586 2.31681 -4.52641 -10.83019 -5.49369 -0.52155 -24.20311 -12.54864 -2.42035 43.62484 109.75213 11.17156 3.25085 -35.61383 9.91684 6.75363 35.78087 -98.09192 14.58713 0.17265 34.71429 -3.59859 -8.19584 -21.35246 -10.11167 -5.49786 -3.78451 36.54164 8.60822 4.71686 -27.26495 -9.90244 5.49503 3.77517
-0.00077 -0.00011 0.00208 -1.14385 -21.51554 -1.51403 46.7542 2.26613 -4.50438 -10.80071 -5.51807 -0.52168 -24.37858 -13.15392 -1.12837 43.63752 103.981 9.83787 2.26327 -35.34933 9.90427 6.66817 35.61252 -98.09676 14.63258 0.17582 34.54381 -3.62312 -8.45521 -21.31841 -10.09221 -5.48859 -3.7785 36.41933 8.6711 4.90239 -27.22743 -9.87871 5.47835 3.76363
-0.00103 -0.00012 0.00228 -1.04567 -21.36244 -1.52181 46.53551 2.21588 -4.46477 -10.7739 -5.54895 -0.52179 -24.55276 -13.81814 0.33873 43.67269 97.52064 8.3461 1.15646 -35.14356 9.87458 6.63493 35.39644 -98.12015 14.69565 0.17718 34.35302 -3.65106 -8.75269 -21.27892 -10.06716 -5.47668 -3.77062 36.27033 8.74212 5.11536 -27.18435 -9.85538 5.46133 3.75181
-0.0013 -0.00013 0.00241 -0.90922 -21.24591 -1.5371 46.35335 2.16462 -4.46295 -10.74127 -5.56495 -0.52193 -24.72995 -14.35806 1.43533 43.66154 92.51556 7.1883 0.30122 -34.81223 9.88022 6.49406 35.28201 -98.11743 14.72524 0.18037 34.20627 -3.67185 -8.96959 -21.25102 -10.05402 -5.47035 -3.76669 36.17873 8.79579 5.27031 -27.15322 -9.83123 5.44508 3.7406
-0.0016 -0.00016 0.00237 -0.66484 -21.2234 -1.57257 46.2672 2.11131 -4.5601 -10.69415 -5.54845 -0.52214 -24.91298 -14.55336 1.51423 43.51281 91.5329 6.95221 0.1429 -34.14629 9.99113 6.03232 35.44179 -97.92717 14.62948 0.20598 34.17194 -3.6726 -8.96568 -21.25443 -10.07298 -5.47931 -3.7736 36.23714 8.80281 5.26525 -27.15349 -9.80454 5.43065 3.73094
-0.00192 -0.0002 0.00225 -0.38282 -21.23866 -1.61572 46.2183 2.05681 -4.69611 -10.64107 -5.51491 -0.52237 -25.09921 -14.62449 1.22155 43.3195 92.00634 7.05056 0.23599 -33.35256 10.13642 5.46629 35.70456 -97.72652 14.50477 0.23105 34.18339 -3.66633 -8.88162 -21.26965 -10.10392 -5.49384 -3.78445 36.35443 8.79225 5.20194 -27.16602 -9.77707 5.41705 3.72192
-0.00223 -0.00023 0.00217 -0.11961 -21.2409 -1.65562 46.15536 2.00247 -4.81731 -10.58955 -5.48441 -0.5226 -25.28591 -14.7548 1.09925 43.1535 91.79421 6.99229 0.20965 -32.61059 10.25997 4.96579 35.92323 -97.61354 14.41715 0.24387 34.17942 -3.66345 -8.83299 -21.2797 -10.1299 -5.50592 -3.79355 36.44991 8.78907 5.166 -27.17383 -9.7501 5.40323 3.71267
-0.00254 -0.00027 0.00212 0.15188 -21.22618 -1.69439 46.08114 1.94993 -4.92629 -10.54222 -5.476 -0.52279 -25.46559 -14.87332 0.96875 42.95777 91.68479 6.95388 0.20551 -31.89438 10.40755 4.39229 36.1305 -97.17364 14.23477 0.30588 34.15288 -3.6594 -8.78505 -21.28861 -10.15425 -5.51788 -3.80259 36.52527 8.78831 5.12672 -27.17806 -9.72248 5.38869 3.70314
-0.00287 -0.00031 0.00197 0.41376 -21.25516 -1.73748 46.03819 1.89309 -5.07027 -10.48555 -5.4147 -0.52308 -25.65925 -14.98685 0.76857 42.81323 91.70767 6.95384 0.2149 -31.09501 10.51553 3.94137 36.38616 -97.38299 14.23494 0.26976 34.18409 -3.65651 -8.72088 -21.3031 -10.18433 -5.53116 -3.81254 36.65567 8.77851 5.07987 -27.19268 -9.69608 5.37593 3.69439
-0.00329 -0.00035 0.00157 0.65011 -21.40048 -1.78921 46.08124 1.82692 -5.29861 -10.39779 -5.23548 -0.52361 -25.90191 -15.11801 0.45687 42.82194 91.7251 6.97279 0.19769 -30.09179 10.48581 3.89693 36.74811 -99.64392 14.81593 -0.07635 34.36494 -3.65478 -8.59462 -21.32758 -10.23191 -5.549 -3.82555 36.93023 8.74674 5.03274 -27.23271 -9.67297 5.36723 3.68714
-0.00374 -0.00041 0.00108 0.87313 -21.58751 -1.84525 46.15271 1.75603 -5.56141 -10.30222 -4.9989 -0.52426 -26.15586 -15.24797 0.08986 42.8831 91.82762 7.01962 0.18579 -29.01097 10.41871 3.97242 37.1557 -102.51456 15.56956 -0.51454 34.60249 -3.6549 -8.46086 -21.35829 -10.28408 -5.56759 -3.83908 37.25676 8.70687 4.97897 -27.28274 -9.65123 5.36044 3.68075
-0.00418 -0.00046 0.00064 1.09607 -21.75225 -1.90032 46.20556 1.68586 -5.81017 -10.21446 -4.77318 -0.52486 -26.39799 -15.37818 -0.24509 42.92017 91.90021 7.05695 0.17297 -27.96851 10.38181 3.96409 37.54361 -104.93322 16.19725 -0.88408 34.81265 -3.65696 -8.35581 -21.3871 -10.33102 -5.58431 -3.85133 37.55532 8.6714 4.9239 -27.3285 -9.62896 5.35323 3.67428
-0.00459 -0.0005 0.00017 1.34796 -21.93252 -1.95168 46.28429 1.62176 -6.0532 -10.10794 -4.61205 -0.5254 -26.67079 -15.5065 -0.6222 42.95855 91.98682 7.09269 0.16262 -26.90595 10.29046 4.07233 37.93012 -108.0743 17.02054 -1.36412 35.02953 -3.64809 -8.1446 -21.4101 -10.39125 -5.60753 -3.868 37.87483 8.63169 4.88446 -27.37392 -9.60601 5.34412 3.66648
-0.00507 -0.00058 -0.00026 1.53373 -22.08968 -2.01146 46.31475 1.54378 -6.31617 -10.03941 -4.30172 -0.52614 -26.87944 -15.63862 -0.91983 43.00498 92.04539 7.13389 0.1451 -25.87172 10.30305 3.97207 38.32967 -109.87515 17.48263 -1.63924 35.24742 -3.6612 -8.14941 -21.44939 -10.42525 -5.61752 -3.8757 38.1616 8.59986 4.81236 -27.42178 -9.58512 5.33947 3.66171
-0.00572 -0.00074 -0.00061 1.55831 -22.17399 -2.09509 46.21038 1.42976 -6.62273 -10.07208 -3.605 -0.52696 -26.93343 -15.79451 -0.98281 43.08101 91.99902 7.18271 0.10548 -24.90897 10.61263 3.23009 38.74794 -107.66148 16.86464 -1.29742 35.43574 -3.74579 -8.79058 -21.50783 -10.38114 -5.589 -3.85729 38.35058 8.58553 4.6451 -27.47787 -9.56726 5.34612 3.66466
-0.00644 -0.00094 -0.00091 1.51306 -22.23317 -2.18654 46.05541 1.30178 -6.94856 -10.14443 -2.75854 -0.52805 -26.91808 -15.9523 -0.96267 43.16014 91.91541 7.23442 0.0574 -23.9837 11.02758 2.2824 39.17825 -104.11138 15.88559 -0.75183 35.6263 -3.85026 -9.64268 -21.587 -10.31122 -5.54747 -3.83007 38.50334 8.58057 4.44634 -27.53526 -9.55197 5.35731 3.67074
-0.00714 -0.00112 -0.0012 1.48798 -22.30289 -2.27349 45.91966 1.17936 -7.26736 -10.20224 -1.97247 -0.52932 -26.91748 -16.10157 -0.97933 43.22442 91.84583 7.28364 0.01255 -23.05775 11.39384 1.45232 39.60668 -101.27774 15.09761 -0.31789 35.8278 -3.93844 -10.37372 -21.67249 -10.25606 -5.51304 -3.80765 38.66909 8.57561 4.26715 -27.58941 -9.53688 5.36673 3.67566
-0.0078 -0.00131 -0.00164 1.51208 -22.37787 -2.36528 45.80023 1.05983 -7.58003 -10.24469 -1.21459 -0.52936 -26.98664 -16.28376 -1.00087 43.34588 91.7923 7.33935 -0.02948 -22.05657 11.76304 0.52088 40.02208 -97.99395 14.19878 0.19447 35.98104 -4.05779 -11.21097 -21.69152 -10.18841 -5.47357 -3.78185 38.85202 8.55273 4.06714 -27.6551 -9.51558 5.37484 3.67943
-0.00855 -0.00149 -0.00175 1.41633 -22.43529 -2.44795 45.6352 0.93133 -7.90966 -10.32907 -0.36585 -0.53196 -26.89565 -16.39699 -0.9935 43.35003 91.69531 7.38142 -0.07934 -21.22626 12.15056 -0.24529 40.46626 -95.33594 13.44652 0.59156 36.23432 -4.11632 -11.87703 -21.85411 -10.14043 -5.44157 -3.76104 38.98901 8.56906 3.90108 -27.69694 -9.50838 5.38689 3.68642
-0.00955 -0.00162 -0.001 1.01546 -22.45072 -2.51061 45.35007 0.77904 -8.28068 -10.51612 0.7194 -0.54205 -26.36475 -16.32673 -0.91105 43.01405 91.48381 7.38778 -0.15048 -20.82404 12.57204 -0.54458 40.99161 -94.60576 13.15293 0.63527 36.76355 -4.00715 -12.02154 -22.40376 -10.15391 -5.43255 -3.75566 39.01491 8.69605 3.85584 -27.67247 -9.53434 5.40736 3.70052
-0.01063 -0.00175 8e-05 0.49501 -22.44904 -2.56248 45.02221 0.61876 -8.66808 -10.74473 1.88627 -0.55461 -25.67835 -16.1856 -0.80524 42.56231 91.22994 7.37956 -0.22893 -20.59997 13.00676 -0.66394 41.54416 -94.56592 13.02325 0.55456 37.39189 -3.83512 -11.98688 -23.09663 -10.18767 -5.43158 -3.75564 38.99402 8.86183 3.84368 -27.62391 -9.57516 5.4318 3.71789
-0.01165 -0.00188 0.00104 0.02337 -22.45477 -2.61465 44.71758 0.46368 -9.04822 -10.95652 3.00114 -0.56569 -25.07194 -16.07214 -0.7197 42.17369 90.99719 7.37616 -0.303 -20.31659 13.4296 -0.83971 42.08132 -94.29825 12.84225 0.52044 37.97586 -3.68852 -12.03138 -23.72837 -10.21189 -5.42753 -3.75354 38.99005 9.00621 3.80193 -27.5864 -9.61277 5.45541 3.73451
-0.01277 -0.002 0.00189 -0.42815 -22.46131 -2.68658 44.39366 0.30116 -9.42814 -11.16077 4.18502 -0.57828 -24.4213 -15.97805 -0.58947 41.74171 90.75527 7.38078 -0.38192 -19.94044 13.88092 -1.1282 42.63277 -93.64729 12.55756 0.53167 38.56182 -3.55588 -12.08924 -24.3495 -10.23755 -5.42082 -3.74982 39.00421 9.16485 3.81478 -27.54854 -9.63626 5.47542 3.74837
-0.01369 -0.00214 0.00306 -0.94807 -22.46229 -2.71464 44.10224 0.15281 -9.81232 -11.39033 5.24154 -0.58832 -23.82985 -15.82659 -0.54921 41.37138 90.52299 7.36487 -0.45223 -19.80265 14.27458 -1.13832 43.15942 -93.94385 12.52414 0.42093 39.16122 -3.37898 -12.07842 -25.01973 -10.26415 -5.42142 -3.75063 38.9687 9.30536 3.72938 -27.50561 -9.6917 5.50338 3.7684
